<svg id="Layer_1" enable-background="new 0 0 512 512" height="312" viewBox="0 0 512 512" width="312" xmlns="http://www.w3.org/2000/svg">

    <path fill="#7ea5ef" d="m255 512c-4 0-11-1-10-4l-59-59h-130c-30 0-55-24-55-55v-337c0-30 24-55 55-55h401c30 0 55 24 55 55v337c0 30-24 55-55 55h-130l-59 59c-2 2-6 4-10 4zm-200-482c-13 0-25 11-25 25v337c0 13 11 25 25 25h136c3 0 7 1 10 4l53 53 53-53c2-2 6-4 10-4h136c13 0 25-11 25-25v-337c.003-13-11-25-25-25z"/>
    <linearGradient id="bg" gradientUnits="userSpaceOnUse" x1="0%" y1="0%" x2="0%" y2="100%">
        <stop offset="1%" stop-color="#b2d8f6"/><stop offset="80%" stop-color="#84ADEF"/><stop offset="95%" stop-color="#7CA4EB"/>
    </linearGradient>
    <linearGradient id="wg" gradientUnits="userSpaceOnUse" x1="0%" y1="0%" x2="0%" y2="100%">
        <stop offset="15%" stop-color="#fff"/><stop offset="75%" stop-color="#92bef6"/>
    </linearGradient>
    <path fill="url(#wg)" d="m456.832 15h-401.665c-22.092 0-50.167 18.075-40.167 40.166v337.4c0 22.092 18.074 40.167 40.166 40.167h136.565l64.268 64.267 64.267-64.267h136.566c22.091 0 40.168-18.075 40.168-40.167v-337c0-22-18-40-40-40z" />
    <path fill="url(#bg)" transform="scale(0.96) translate(11,11)" d="m456.832 15h-401.665c-22.092 0-50.167 18.075-40.167 40.166v337.4c0 22.092 18.074 40.167 40.166 40.167h136.565l64.268 64.267 64.267-64.267h136.566c22.091 0 40.168-18.075 40.168-40.167v-337c0-22-18-40-40-40z" />

    <g transform="scale(0.9) translate(-70,-30)">
        <linearGradient id="st" gradientUnits="userSpaceOnUse" x1="0%" y1="0%" x2="0%" y2="100%">
            <stop offset="10%" stop-color="#fff"/><stop offset="50%" stop-color="#fecf42"/><stop offset="95%" stop-color="#f5af0d"/>
        </linearGradient>
        <path fill="#e89e2c" d="m334.309 351.333c-2.389 0-4.783-.569-6.979-1.723l-71.33-37.497-71.322 37.497c-5.054 2.656-11.178 2.215-15.797-1.142s-6.933-9.044-5.968-14.671l13.619-79.421-57.705-56.247c-4.089-3.985-5.56-9.946-3.796-15.376 1.765-5.431 6.459-9.389 12.109-10.209l79.742-11.589 35.666-72.262c2.527-5.12 7.742-8.361 13.451-8.361s10.924 3.241 13.451 8.36l35.668 72.263 79.738 11.589c5.65.821 10.344 4.778 12.109 10.209 1.764 5.43.292 11.391-3.797 15.376l-57.705 56.246 13.488 78.605c.246 1.077.377 2.199.377 3.352 0 8.27-6.692 14.976-14.955 15-.021.001-.042.001-.064.001zm-172.777-153.472 41.588 40.537c3.535 3.445 5.148 8.41 4.314 13.276l-9.815 57.238 51.401-27.023c4.369-2.297 9.591-2.297 13.96 0l51.405 27.022-9.822-57.235c-.835-4.866.778-9.832 4.314-13.278l41.588-40.537-57.463-8.352c-4.885-.71-9.108-3.777-11.293-8.204l-25.709-52.081-25.705 52.081c-2.186 4.427-6.408 7.495-11.294 8.205z"/>
        <linearGradient id="wb" gradientUnits="userSpaceOnUse" x1="0%" y1="0%" x2="0%" y2="100%">
            <stop offset="35%" stop-color="#fff"/><stop offset="75%" stop-color="#f5af0d"/>
        </linearGradient>
        <path transform="scale(1.05) translate(-11,-11)" fill="url(#wb)" d="m256 295.167-78.302 41.166 14.952-87.193-63.353-61.751 87.547-12.723 39.156-79.333 39.16 79.333 87.541 12.723-63.354 61.751 14.963 87.193z" />

        <path transform="scale(0.93) translate(20,18)" fill="url(#st)" d="m256 295.167-78.302 41.166 14.952-87.193-63.353-61.751 87.547-12.723 39.156-79.333 39.16 79.333 87.541 12.723-63.354 61.751 14.963 87.193z" />
    </g>
    <g transform="translate(70,50)">
        <path fill="#e89e2c" d="m334.309 351.333c-2.389 0-4.783-.569-6.979-1.723l-71.33-37.497-71.322 37.497c-5.054 2.656-11.178 2.215-15.797-1.142s-6.933-9.044-5.968-14.671l13.619-79.421-57.705-56.247c-4.089-3.985-5.56-9.946-3.796-15.376 1.765-5.431 6.459-9.389 12.109-10.209l79.742-11.589 35.666-72.262c2.527-5.12 7.742-8.361 13.451-8.361s10.924 3.241 13.451 8.36l35.668 72.263 79.738 11.589c5.65.821 10.344 4.778 12.109 10.209 1.764 5.43.292 11.391-3.797 15.376l-57.705 56.246 13.488 78.605c.246 1.077.377 2.199.377 3.352 0 8.27-6.692 14.976-14.955 15-.021.001-.042.001-.064.001zm-172.777-153.472 41.588 40.537c3.535 3.445 5.148 8.41 4.314 13.276l-9.815 57.238 51.401-27.023c4.369-2.297 9.591-2.297 13.96 0l51.405 27.022-9.822-57.235c-.835-4.866.778-9.832 4.314-13.278l41.588-40.537-57.463-8.352c-4.885-.71-9.108-3.777-11.293-8.204l-25.709-52.081-25.705 52.081c-2.186 4.427-6.408 7.495-11.294 8.205z"/>
        <path transform="scale(1.05) translate(-11,-11)" fill="url(#wb)" d="m256 295.167-78.302 41.166 14.952-87.193-63.353-61.751 87.547-12.723 39.156-79.333 39.16 79.333 87.541 12.723-63.354 61.751 14.963 87.193z" />
        <path transform="scale(0.93) translate(20,18)" fill="url(#st)" d="m256 295.167-78.302 41.166 14.952-87.193-63.353-61.751 87.547-12.723 39.156-79.333 39.16 79.333 87.541 12.723-63.354 61.751 14.963 87.193z" />
    </g>
</svg>